<?xml version="1.0" encoding="utf-8"?>
<!-- Generator: Adobe Adobe Illustrator 24.2.0, SVG Export Plug-In . SVG Version: 6.00 Build 0)  -->
<svg version="1.1" id="레이어_1" xmlns="http://www.w3.org/2000/svg" xmlns:xlink="http://www.w3.org/1999/xlink" x="0px"
	 y="0px" width="500px" height="500px" viewBox="0 0 500 500" style="enable-background:new 0 0 500 500;" xml:space="preserve">
<style type="text/css">
	.st0{display:none;}
	.st1{display:inline;}
	.st2{display:inline;fill:none;stroke:#FFFFFF;stroke-width:42;stroke-miterlimit:10;}
	.st3{display:inline;fill:none;stroke:#FFFFFF;stroke-width:30;stroke-miterlimit:10;}
	.st4{fill:#FFFFFF;}
	.st5{clip-path:url(#SVGID_2_);fill:none;stroke:#000000;stroke-width:22;stroke-miterlimit:10;}
	.st6{clip-path:url(#SVGID_4_);fill:none;stroke:#000000;stroke-width:22;stroke-miterlimit:10;}
</style>
<g class="st0">
	<g class="st1">
		<path d="M250,0C111.93,0,0,111.93,0,250s111.93,250,250,250s250-111.93,250-250S388.07,0,250,0z M376.49,360.99
			c-0.4,0.49-22.75,25.13-23.02,25.46c-6.64,7.98-17.18,11.46-26.94,12.31c-27.91,6.36-86.57-33.07-139.42-95.64
			c-52.84-62.57-81.9-127-70.96-153.46c2.47-9.48,7.67-19.3,16.64-24.5c0.37-0.21,28.4-18.12,28.95-18.43
			c15.96-9.25,31.72-8.21,44.51,22.99l13.37,32.59c11.35,27.68-0.27,37.99-17.02,44.86l-11.72,4.81
			c10.97,17.61,24.38,36.04,39.82,54.33c15.44,18.28,31.38,34.58,46.9,48.35l6.7-10.75c9.57-15.36,21.68-25.1,47.07-9.27l29.9,18.63
			C389.89,331.1,388.28,346.81,376.49,360.99z"/>
	</g>
</g>
<g class="st0">
	<g class="st1">
		<circle cx="250" cy="250" r="250"/>
	</g>
	<path class="st2" d="M120.91,334.77V165.23c0-24.48,19.84-44.32,44.32-44.32h169.54c24.48,0,44.32,19.84,44.32,44.32v169.54
		c0,24.48-19.84,44.32-44.32,44.32H165.23C140.76,379.09,120.91,359.24,120.91,334.77z"/>
	<circle class="st3" cx="250" cy="250" r="55.87"/>
</g>
<g>
	<g>
		<circle cx="250" cy="250" r="250"/>
	</g>
	<path class="st4" d="M95.25,328.3V171.7c0-19.13,15.5-34.63,34.63-34.63h240.25c19.13,0,34.63,15.5,34.63,34.63v156.6
		c0,19.13-15.5,34.63-34.63,34.63H129.88C110.75,362.93,95.25,347.42,95.25,328.3z"/>
	<g>
		<g>
			<defs>
				<rect id="SVGID_1_" x="92.35" y="133.4" width="155.47" height="152.09"/>
			</defs>
			<clipPath id="SVGID_2_">
				<use xlink:href="#SVGID_1_"  style="overflow:visible;"/>
			</clipPath>
			<path class="st5" d="M100.24,141.07l118.37,121.79c0,0,11.93,11.64,29.21,11.64"/>
		</g>
		<g>
			<defs>
				<rect id="SVGID_3_" x="247.82" y="133.4" width="155.47" height="152.09"/>
			</defs>
			<clipPath id="SVGID_4_">
				<use xlink:href="#SVGID_3_"  style="overflow:visible;"/>
			</clipPath>
			<path class="st6" d="M395.4,141.07L277.03,262.86c0,0-11.93,11.64-29.21,11.64"/>
		</g>
	</g>
</g>
</svg>
